HIERARCHY
ROOT hip
{
  OFFSET 0.0 0.0 0.0
  CHANNELS 6 Xposition Yposition Zposition Zrotation Yrotation Xrotation
  JOINT abdomen
  {
    OFFSET 0.0 20.6881 -0.73152
    CHANNELS 3 Zrotation Xrotation Yrotation
    JOINT chest
    {
      OFFSET 0.0 11.7043 -0.48768
      CHANNELS 3 Zrotation Xrotation Yrotation
      JOINT neck
      {
        OFFSET 0.0 22.1894 -2.19456
        CHANNELS 3 Zrotation Xrotation Yrotation
        JOINT head
        {
          OFFSET -0.24384 7.07133 1.2192
          CHANNELS 3 Zrotation Xrotation Yrotation
          JOINT leftEye
          {
            OFFSET 4.14528 8.04674 8.04672
            CHANNELS 3 Zrotation Xrotation Yrotation
            End Site
            {
              OFFSET 1.0 0.0 0.0
            }
          }
          JOINT rightEye
          {
            OFFSET -3.6576 8.04674 8.04672
            CHANNELS 3 Zrotation Xrotation Yrotation
            End Site
            {
              OFFSET 1.0 0.0 0.0
            }
          }
        }
      }
      JOINT rCollar
      {
        OFFSET -2.68224 19.2634 -4.8768
        CHANNELS 3 Zrotation Xrotation Yrotation
        JOINT rShldr
        {
          OFFSET -8.77824 -1.95073 1.46304
          CHANNELS 3 Zrotation Xrotation Yrotation
          JOINT rForeArm
          {
            OFFSET -28.1742 -1.7115 0.48768
            CHANNELS 3 Zrotation Xrotation Yrotation
            JOINT rHand
            {
              OFFSET -22.5879 0.773209 7.07136
              CHANNELS 3 Zrotation Xrotation Yrotation
              JOINT rThumb1
              {
                OFFSET -1.2192 -0.487915 3.41376
                CHANNELS 3 Zrotation Xrotation Yrotation
                JOINT rThumb2
                {
                  OFFSET -3.37035 -0.52449 3.41376
                  CHANNELS 3 Zrotation Xrotation Yrotation
                  End Site
                  {
                    OFFSET -1.78271 -1.18214 1.43049
                  }
                }
              }
              JOINT rIndex1
              {
                OFFSET -7.75947 0.938293 5.60832
                CHANNELS 3 Zrotation Xrotation Yrotation
                JOINT rIndex2
                {
                  OFFSET -2.54057 -0.884171 1.56538
                  CHANNELS 3 Zrotation Xrotation Yrotation
                  End Site
                  {
                    OFFSET -1.62519 -0.234802 1.16502
                  }
                }
              }
              JOINT rMid1
              {
                OFFSET -8.24714 1.18213 3.41376
                CHANNELS 3 Zrotation Xrotation Yrotation
                JOINT rMid2
                {
                  OFFSET -3.10165 -0.590103 1.0647
                  CHANNELS 3 Zrotation Xrotation Yrotation
                  End Site
                  {
                    OFFSET -2.48547 -0.328903 0.83742
                  }
                }
              }
              JOINT rRing1
              {
                OFFSET -8.82822 0.546677 1.51678
                CHANNELS 3 Zrotation Xrotation Yrotation
                JOINT rRing2
                {
                  OFFSET -2.60934 -0.819778 -0.0198488
                  CHANNELS 3 Zrotation Xrotation Yrotation
                  End Site
                  {
                    OFFSET -2.33842 -0.294052 0.168128
                  }
                }
              }
              JOINT rPinky1
              {
                OFFSET -8.27202 -0.0477905 -0.4584
                CHANNELS 3 Zrotation Xrotation Yrotation
                JOINT rPinky2
                {
                  OFFSET -1.82734 -0.647385 -0.700984
                  CHANNELS 3 Zrotation Xrotation Yrotation
                  End Site
                  {
                    OFFSET -1.69225 -0.51767 -0.607171
                  }
                }
              }
            }
          }
        }
      }
      JOINT lCollar
      {
        OFFSET 2.68224 19.2634 -4.8768
        CHANNELS 3 Zrotation Xrotation Yrotation
        JOINT lShldr
        {
          OFFSET 8.77824 -1.95073 1.46304
          CHANNELS 3 Zrotation Xrotation Yrotation
          JOINT lForeArm
          {
            OFFSET 28.1742 -1.7115 0.48768
            CHANNELS 3 Zrotation Xrotation Yrotation
            JOINT lHand
            {
              OFFSET 22.5879 0.773209 7.07136
              CHANNELS 3 Zrotation Xrotation Yrotation
              JOINT lThumb1
              {
                OFFSET 1.2192 -0.487915 3.41376
                CHANNELS 3 Zrotation Xrotation Yrotation
                JOINT lThumb2
                {
                  OFFSET 3.37035 -0.52449 3.41376
                  CHANNELS 3 Zrotation Xrotation Yrotation
                  End Site
                  {
                    OFFSET 1.78271 -1.18214 1.43049
                  }
                }
              }
              JOINT lIndex1
              {
                OFFSET 7.75947 0.938293 5.60832
                CHANNELS 3 Zrotation Xrotation Yrotation
                JOINT lIndex2
                {
                  OFFSET 2.54057 -0.884171 1.56538
                  CHANNELS 3 Zrotation Xrotation Yrotation
                  End Site
                  {
                    OFFSET 1.62519 -0.234802 1.16502
                  }
                }
              }
              JOINT lMid1
              {
                OFFSET 8.24714 1.18213 3.41376
                CHANNELS 3 Zrotation Xrotation Yrotation
                JOINT lMid2
                {
                  OFFSET 3.10165 -0.590103 1.0647
                  CHANNELS 3 Zrotation Xrotation Yrotation
                  End Site
                  {
                    OFFSET 2.48547 -0.328903 0.83742
                  }
                }
              }
              JOINT lRing1
              {
                OFFSET 8.82822 0.546677 1.51678
                CHANNELS 3 Zrotation Xrotation Yrotation
                JOINT lRing2
                {
                  OFFSET 2.60934 -0.819778 -0.0198488
                  CHANNELS 3 Zrotation Xrotation Yrotation
                  End Site
                  {
                    OFFSET 2.33842 -0.294052 0.168128
                  }
                }
              }
              JOINT lPinky1
              {
                OFFSET 8.27202 -0.0477905 -0.4584
                CHANNELS 3 Zrotation Xrotation Yrotation
                JOINT lPinky2
                {
                  OFFSET 1.82734 -0.647385 -0.700984
                  CHANNELS 3 Zrotation Xrotation Yrotation
                  End Site
                  {
                    OFFSET 1.69225 -0.51767 -0.607171
                  }
                }
              }
            }
          }
        }
      }
    }
  }
  JOINT rButtock
  {
    OFFSET -8.77824 4.35084 1.2192
    CHANNELS 3 Zrotation Xrotation Yrotation
    JOINT rThigh
    {
      OFFSET 0.0 -1.70687 -2.19456
      CHANNELS 3 Zrotation Xrotation Yrotation
      JOINT rShin
      {
        OFFSET 0.0 -36.8199 0.73152
        CHANNELS 3 Zrotation Xrotation Yrotation
        JOINT rFoot
        {
          OFFSET 0.73152 -45.1104 -5.12064
          CHANNELS 3 Zrotation Xrotation Yrotation
          End Site
          {
            OFFSET -1.1221 -3.69964 12.103
          }
        }
      }
    }
  }
  JOINT lButtock
  {
    OFFSET 8.77824 4.35084 1.2192
    CHANNELS 3 Zrotation Xrotation Yrotation
    JOINT lThigh
    {
      OFFSET 0.0 -1.70687 -2.19456
      CHANNELS 3 Zrotation Xrotation Yrotation
      JOINT lShin
      {
        OFFSET 0.0 -36.8199 0.73152
        CHANNELS 3 Zrotation Xrotation Yrotation
        JOINT lFoot
        {
          OFFSET -0.73152 -45.1104 -5.12064
          CHANNELS 3 Zrotation Xrotation Yrotation
          End Site
          {
            OFFSET 1.1221 -3.69964 12.103
          }
        }
      }
    }
  }
}
MOTION
Frames: 8
Frame Time: 0.00833333
0.9950450000000001 81.1827 17.900499999999994 -1.5868 7.755 1.9988 13.3614 12.2492 -0.298519 6.05219 -6.02787 0.604441 8.49974 0.759222 -1.04611 -27.8978 -4.06038 -5.43831 -0.0 0.0 0.0 -0.0 0.0 0.0 0.0 0.0 0.0 0.0 0.0 0.0 0.0 0.0 0.0 -0.136238 10.4658 1.48762 1.45411e-10 -2.67779e-10 1.44907e-09 2.62573e-10 -4.57973e-10 2.50316e-09 1.45421e-10 -2.67782e-10 1.44906e-09 7.73091 5.47488 0.417314 1.45414e-10 -2.67784e-10 1.44907e-09 2.90554 0.965183 0.102902 1.45418e-10 -2.67785e-10 1.44907e-09 10.2786 0.731801 0.0259123 1.45402e-10 -2.67784e-10 1.44908e-09 2.22167 -0.733487 -0.20892 0.0 0.0 0.0 0.0 0.0 0.0 0.0 0.0 0.0 0.120541 9.85175 -1.39852 2.61616e-10 -4.30246e-10 1.44278e-09 4.63028e-10 -7.47477e-10 2.49132e-09 2.61615e-10 -4.30244e-10 1.44279e-09 -7.73091 5.47488 -0.417314 2.61616e-10 -4.30245e-10 1.44278e-09 -2.90554 0.965183 -0.102902 2.61604e-10 -4.30245e-10 1.44278e-09 -10.2786 0.731801 -0.0259123 2.61617e-10 -4.30247e-10 1.44277e-09 -2.22167 -0.733487 0.20892 -2.03217e-16 0.0 -3.88251e-19 -3.21189 2.86229 -4.88787 -0.171713 32.0586 0.716337 -3.929 -12.5173 -11.9 2.03217e-16 0.0 3.88251e-19 3.9484 -33.5955 -4.23736 0.357915 40.4382 -0.59726 -0.23529 -7.23119 -2.24171
1.064985 81.2205 18.349900000000005 -1.8204 7.8771 2.0876 12.987 12.2828 -0.30728 6.10965 -6.0603 0.5932 8.56608 0.582507 -1.02045 -27.3843 -3.9787 -5.38688 -0.0 0.0 0.0 -0.0 0.0 0.0 0.0 0.0 0.0 0.0 0.0 0.0 0.0 0.0 0.0 -0.137413 10.5096 1.49399 4.66566e-10 -1.10553e-10 1.63466e-09 8.19015e-10 -1.84777e-10 2.82098e-09 4.66577e-10 -1.10559e-10 1.63466e-09 7.73091 5.47488 0.417314 4.66569e-10 -1.10561e-10 1.63466e-09 2.90554 0.965183 0.102902 4.66572e-10 -1.10562e-10 1.63466e-09 10.2786 0.731801 0.0259123 4.66553e-10 -1.1056e-10 1.63467e-09 2.22167 -0.733487 -0.20892 0.0 0.0 0.0 0.0 0.0 0.0 0.0 0.0 0.0 0.119189 9.79715 -1.39061 8.86392e-10 -7.19508e-10 1.85909e-09 1.54648e-09 -1.24777e-09 3.20526e-09 8.86391e-10 -7.19505e-10 1.8591e-09 -7.73091 5.47488 -0.417314 8.86391e-10 -7.19507e-10 1.85909e-09 -2.90554 0.965183 -0.102902 8.86379e-10 -7.19508e-10 1.85909e-09 -10.2786 0.731801 -0.0259123 8.86392e-10 -7.1951e-10 1.85909e-09 -2.22167 -0.733487 0.20892 -2.03217e-16 0.0 -3.88251e-19 -3.26109 2.43434 -5.1652 -0.187345 32.9481 0.715486 -3.54935 -11.7515 -11.0905 2.03217e-16 0.0 3.88251e-19 4.08807 -33.4298 -4.29165 0.360013 40.5084 -0.591615 -0.260496 -7.39533 -2.28873
1.134715 81.2629 18.798000000000002 -2.0247 8.0186 2.1757 12.5461 12.3253 -0.322482 6.17669 -6.08176 0.577983 8.64853 0.330014 -0.989077 -26.8881 -3.8813 -5.33995 -0.0 0.0 0.0 -0.0 0.0 0.0 0.0 0.0 0.0 0.0 0.0 0.0 0.0 0.0 0.0 -0.136048 10.4588 1.4866 1.64677e-10 -1.62873e-10 1.61589e-09 2.97038e-10 -2.75777e-10 2.79167e-09 1.64688e-10 -1.6288e-10 1.61588e-09 7.73091 5.47488 0.417314 1.6468e-10 -1.62882e-10 1.61589e-09 2.90554 0.965183 0.102902 1.64683e-10 -1.62883e-10 1.61589e-09 10.2786 0.731801 0.0259123 1.64664e-10 -1.62881e-10 1.6159e-09 2.22167 -0.733487 -0.20892 0.0 0.0 0.0 0.0 0.0 0.0 0.0 0.0 0.0 0.117811 9.74101 -1.38249 7.69679e-10 -8.89646e-10 1.65419e-09 1.3429e-09 -1.5424e-09 2.85217e-09 7.69678e-10 -8.89643e-10 1.6542e-09 -7.73091 5.47488 -0.417314 7.69679e-10 -8.89645e-10 1.65419e-09 -2.90554 0.965183 -0.102902 7.69667e-10 -8.89645e-10 1.65419e-09 -10.2786 0.731801 -0.0259123 7.6968e-10 -8.89647e-10 1.65418e-09 -2.22167 -0.733487 0.20892 -2.03217e-16 0.0 -3.88251e-19 -3.37811 1.94275 -5.50566 -0.205239 33.9372 0.716279 -3.15891 -10.9159 -10.2142 2.03217e-16 0.0 3.88251e-19 4.17526 -33.249 -4.38475 0.361592 40.5503 -0.584629 -0.284985 -7.55633 -2.32952
1.1997649999999997 81.3098 19.247200000000007 -2.202 8.1625 2.2537 12.0606 12.371 -0.347505 6.25038 -6.09981 0.55853 8.7324 0.0227275 -0.958463 -26.3801 -3.76503 -5.30053 -0.0 0.0 0.0 -0.0 0.0 0.0 0.0 0.0 0.0 0.0 0.0 0.0 0.0 0.0 0.0 -0.13314 10.3487 1.4706 -5.22e-10 -3.43088e-10 1.464e-09 -8.91053e-10 -5.89114e-10 2.53602e-09 -5.2199e-10 -3.43095e-10 1.464e-09 7.73091 5.47488 0.417314 -5.21996e-10 -3.43097e-10 1.464e-09 2.90554 0.965183 0.102902 -5.21994e-10 -3.43096e-10 1.464e-09 10.2786 0.731801 0.0259123 -5.22012e-10 -3.43095e-10 1.46401e-09 2.22167 -0.733487 -0.20892 0.0 0.0 0.0 0.0 0.0 0.0 0.0 0.0 0.0 0.116503 9.68753 -1.37475 1.99956e-10 -1.00094e-09 1.06819e-09 3.52991e-10 -1.73555e-09 1.8445e-09 1.99956e-10 -1.00094e-09 1.0682e-09 -7.73091 5.47488 -0.417314 1.99957e-10 -1.00094e-09 1.06819e-09 -2.90554 0.965183 -0.102902 1.99946e-10 -1.00094e-09 1.06819e-09 -10.2786 0.731801 -0.0259123 1.99959e-10 -1.00094e-09 1.06818e-09 -2.22167 -0.733487 0.20892 -2.03217e-16 0.0 -3.88251e-19 -3.54474 1.39218 -5.90009 -0.225172 35.0118 0.718316 -2.76553 -10.0092 -9.27657 2.03217e-16 0.0 3.88251e-19 4.22877 -33.0571 -4.51031 0.362658 40.5632 -0.576238 -0.308838 -7.70583 -2.36643
1.256815 81.3602 19.698099999999997 -2.3632 8.3018 2.3155 11.5361 12.4291 -0.369593 6.3255 -6.11097 0.538291 8.80983 -0.294203 -0.929095 -25.8545 -3.66628 -5.26744 -0.0 0.0 0.0 -0.0 0.0 0.0 0.0 0.0 0.0 0.0 0.0 0.0 0.0 0.0 0.0 -0.129911 10.2238 1.45245 -1.25453e-09 -5.65151e-10 1.25263e-09 -2.15892e-09 -9.75167e-10 2.17784e-09 -1.25453e-09 -5.65157e-10 1.25262e-09 7.73091 5.47488 0.417314 -1.25453e-09 -5.65158e-10 1.25263e-09 2.90554 0.965183 0.102902 -1.25453e-09 -5.65157e-10 1.25263e-09 10.2786 0.731801 0.0259123 -1.25454e-09 -5.65155e-10 1.25264e-09 2.22167 -0.733487 -0.20892 0.0 0.0 0.0 0.0 0.0 0.0 0.0 0.0 0.0 0.115448 9.64414 -1.36847 -5.48937e-10 -9.92659e-10 3.89845e-10 -9.4739e-10 -1.72192e-09 6.78714e-10 -5.48937e-10 -9.92653e-10 3.89852e-10 -7.73091 5.47488 -0.417314 -5.48936e-10 -9.92657e-10 3.89841e-10 -2.90554 0.965183 -0.102902 -5.48945e-10 -9.92656e-10 3.8984e-10 -10.2786 0.731801 -0.0259123 -5.48933e-10 -9.92655e-10 3.89832e-10 -2.22167 -0.733487 0.20892 -2.03217e-16 0.0 -3.88251e-19 -3.74539 0.797535 -6.30913 -0.246889 36.1467 0.722274 -2.38215 -9.01005 -8.32051 2.03217e-16 0.0 3.88251e-19 4.27149 -32.8447 -4.63699 0.363243 40.5537 -0.566846 -0.331468 -7.8598 -2.3956
1.3088549999999999 81.4111 20.152299999999997 -2.4972 8.4292 2.3597 10.9782 12.5086 -0.375984 6.39687 -6.11176 0.520717 8.87284 -0.57563 -0.901446 -25.3054 -3.6214 -5.23947 -0.0 0.0 0.0 -0.0 0.0 0.0 0.0 0.0 0.0 0.0 0.0 0.0 0.0 0.0 0.0 -0.127489 10.1282 1.43859 -1.69399e-09 -7.43013e-10 1.05539e-09 -2.92023e-09 -1.28431e-09 1.8409e-09 -1.69399e-09 -7.43018e-10 1.05538e-09 7.73091 5.47488 0.417314 -1.69399e-09 -7.43018e-10 1.05539e-09 2.90554 0.965183 0.102902 -1.69399e-09 -7.43016e-10 1.05539e-09 10.2786 0.731801 0.0259123 -1.694e-09 -7.43015e-10 1.0554e-09 2.22167 -0.733487 -0.20892 0.0 0.0 0.0 0.0 0.0 0.0 0.0 0.0 0.0 0.114824 9.61826 -1.36473 -1.20316e-09 -8.04057e-10 -9.21184e-11 -2.08238e-09 -1.3962e-09 -1.48766e-10 -1.20316e-09 -8.04051e-10 -9.2112e-11 -7.73091 5.47488 -0.417314 -1.20316e-09 -8.04054e-10 -9.21248e-11 -2.90554 0.965183 -0.102902 -1.20317e-09 -8.04053e-10 -9.21256e-11 -10.2786 0.731801 -0.0259123 -1.20316e-09 -8.04052e-10 -9.21343e-11 -2.22167 -0.733487 0.20892 -2.03217e-16 0.0 -3.88251e-19 -3.96257 0.173552 -6.69347 -0.270209 37.3169 0.728857 -2.0203 -7.89763 -7.38867 2.03217e-16 0.0 3.88251e-19 4.32591 -32.6026 -4.73366 0.363381 40.5283 -0.556855 -0.352279 -8.03421 -2.4132
1.3490449999999998 81.4642 20.6096 -2.6238 8.5293 2.3874 10.3768 12.6212 -0.358009 6.46702 -6.09686 0.508077 8.91836 -0.823272 -0.876114 -24.7217 -3.63886 -5.21967 -0.0 0.0 0.0 -0.0 0.0 0.0 0.0 0.0 0.0 0.0 0.0 0.0 0.0 0.0 0.0 -0.126089 10.0727 1.43054 -1.7222e-09 -8.7272e-10 8.65595e-10 -2.97094e-09 -1.50961e-09 1.5122e-09 -1.72219e-09 -8.72723e-10 8.65588e-10 7.73091 5.47488 0.417314 -1.7222e-09 -8.72723e-10 8.65594e-10 2.90554 0.965183 0.102902 -1.72219e-09 -8.72721e-10 8.65598e-10 10.2786 0.731801 0.0259123 -1.7222e-09 -8.72721e-10 8.65608e-10 2.22167 -0.733487 -0.20892 0.0 0.0 0.0 0.0 0.0 0.0 0.0 0.0 0.0 0.115111 9.62983 -1.3664 -1.77786e-09 -3.09611e-10 -3.12748e-10 -3.07759e-09 -5.41299e-10 -5.25806e-10 -1.77786e-09 -3.09605e-10 -3.12742e-10 -7.73091 5.47488 -0.417314 -1.77786e-09 -3.09609e-10 -3.12757e-10 -2.90554 0.965183 -0.102902 -1.77787e-09 -3.09608e-10 -3.12757e-10 -10.2786 0.731801 -0.0259123 -1.77786e-09 -3.09607e-10 -3.12767e-10 -2.22167 -0.733487 0.20892 -2.03217e-16 0.0 -3.88251e-19 -4.20242 -0.479327 -7.04456 -0.295621 38.5285 0.738295 -1.67786 -6.64554 -6.46727 2.03217e-16 0.0 3.88251e-19 4.39502 -32.319 -4.78962 0.363048 40.4848 -0.546241 -0.371341 -8.23919 -2.41805
1.379995 81.5178 21.068299999999994 -2.7386 8.6127 2.41 9.73243 12.7588 -0.324197 6.53743 -6.06959 0.498082 8.95087 -1.05662 -0.852683 -24.1097 -3.69968 -5.20754 -0.0 0.0 0.0 -0.0 0.0 0.0 0.0 0.0 0.0 0.0 0.0 0.0 0.0 0.0 0.0 -0.125107 10.034 1.42493 -1.52918e-09 -9.93834e-10 6.52757e-10 -2.63965e-09 -1.71986e-09 1.14104e-09 -1.52918e-09 -9.93835e-10 6.52747e-10 7.73091 5.47488 0.417314 -1.52918e-09 -9.93835e-10 6.52753e-10 2.90554 0.965183 0.102902 -1.52917e-09 -9.93833e-10 6.52757e-10 10.2786 0.731801 0.0259123 -1.52918e-09 -9.93832e-10 6.5277e-10 2.22167 -0.733487 -0.20892 0.0 0.0 0.0 0.0 0.0 0.0 0.0 0.0 0.0 0.116069 9.6689 -1.37206 -2.3897e-09 4.21841e-10 -4.22022e-10 -4.13597e-09 7.23628e-10 -7.10423e-10 -2.3897e-09 4.21846e-10 -4.22017e-10 -7.73091 5.47488 -0.417314 -2.3897e-09 4.21842e-10 -4.22034e-10 -2.90554 0.965183 -0.102902 -2.3897e-09 4.21843e-10 -4.22032e-10 -10.2786 0.731801 -0.0259123 -2.38969e-09 4.21845e-10 -4.22043e-10 -2.22167 -0.733487 0.20892 -2.03217e-16 0.0 -3.88251e-19 -4.47114 -1.16761 -7.38318 -0.323428 39.7904 0.750518 -1.36049 -5.27203 -5.54291 2.03217e-16 0.0 3.88251e-19 4.46745 -32.0021 -4.82254 0.362265 40.421 -0.534851 -0.388727 -8.46427 -2.41225
